<?xml version="1.0" encoding="utf-8"?>
<!-- Svg Vector Icons : http://www.onlinewebfonts.com/icon -->
<!DOCTYPE svg PUBLIC "-//W3C//DTD SVG 1.1//EN" "http://www.w3.org/Graphics/SVG/1.1/DTD/svg11.dtd">
<svg version="1.1" xmlns="http://www.w3.org/2000/svg" xmlns:xlink="http://www.w3.org/1999/xlink" x="0px" y="0px" viewBox="0 0 256 256" enable-background="new 0 0 256 256" xml:space="preserve">
<metadata> Svg Vector Icons : http://www.onlinewebfonts.com/icon </metadata>
<g><g><path fill="#000000" d="M218.5,251.1c17.7-28.6,27.5-61.8,27.5-94.7c0-14.5-1.5-28.6-5.1-42.3c-2.7-9.4-10.4-16.9-20.5-16.9c-6.1,0-11.6,2.7-15.4,6.9v-1.8c0-11.3-9.2-20.5-20.5-20.5c-11.3,0-20.5,9.2-20.5,20.5V92.1c0-11.3-9.2-20.5-20.5-20.5c-11.4,0-20.5,9.2-20.5,20.5V25.4c0-11.3-9.2-20.5-20.5-20.5c-11.3,0-20.5,9.2-20.5,20.5v117c0,5.7-4.6,10.2-10.2,10.2c-1,0-1.9-0.2-2.8-0.4l-29-11.8c-2.8-1.4-5.9-2.2-9.2-2.2c-11.3,0-20.5,9.2-20.5,20.5c0,8.5,5.2,15.8,12.6,19c33.3,17.2,60,38.3,78.6,73.3H218.5L218.5,251.1z"/></g></g>
</svg>